<svg id="Layer_1" data-name="Layer 1" xmlns="http://www.w3.org/2000/svg" viewBox="0 0 615.74 599"><defs><style>.cls-1{fill:#463e40;}.cls-2{fill:#2c3d57;}.cls-3{fill:#9aa665;}</style></defs><title>Olive branch_LIL_79610</title><path class="cls-1" d="M1023,972.5l-.36.45c-8.72,10.91-30.46,43.31-50.33,87.87a586,586,0,0,0-50.16,236.88v.58h7.15v-.58a578.78,578.78,0,0,1,49.45-233.77c24.53-55.06,49.23-86.2,49.48-86.51l.36-.45Z" transform="translate(-691.36 -699.28)"/><path class="cls-2" d="M976.32,942c-5.92-16.26-16.11-29.8-28.68-38.12-12.77-8.44-26.57-10.62-38.87-6.15s-21.47,15-25.82,29.69c-4.29,14.46-3.39,31.38,2.53,47.65s16.11,29.8,28.69,38.12c8.42,5.58,17.31,8.42,25.91,8.42a37.74,37.74,0,0,0,12.95-2.27c12.3-4.48,21.47-15,25.82-29.69C983.14,975.21,982.24,958.29,976.32,942Zm-62.61-4.53a11,11,0,1,1,11-11A11,11,0,0,1,913.71,937.49Z" transform="translate(-691.36 -699.28)"/><path class="cls-2" d="M1056,1186.65c-8.41-10-21.45-15-36.73-14.11-15,.92-30.64,7.55-43.9,18.67s-22.5,25.33-26,40c-3.57,14.88-.9,28.59,7.51,38.62,7.75,9.24,19.43,14.22,33.17,14.22,1.17,0,2.36,0,3.56-.11,15.06-.92,30.65-7.55,43.91-18.67s22.49-25.33,26-40C1067.09,1210.39,1064.42,1196.68,1056,1186.65Zm-25.3,25.47a11,11,0,1,1,11-11A11,11,0,0,1,1030.7,1212.12Z" transform="translate(-691.36 -699.28)"/><path class="cls-3" d="M745.12,929.08a11.44,11.44,0,0,0-15.06,15.06A307.82,307.82,0,0,0,800.94,1053c34.29,34.29,75.78,60.11,120.37,75l-158-161.77,3.89-3.89,161.77,158c-14.87-44.59-40.68-86.08-75-120.37A308,308,0,0,0,745.12,929.08Z" transform="translate(-691.36 -699.28)"/><path class="cls-3" d="M1218.1,1033.14a11.44,11.44,0,0,0-9-19.3,308,308,0,0,0-126.53,29.37c-43.95,20.5-82.4,50.66-111.62,87.47L1177,1037.52l2.32,5-203.82,98c47,1.29,94.8-8.78,138.76-29.27A308,308,0,0,0,1218.1,1033.14Z" transform="translate(-691.36 -699.28)"/><path class="cls-3" d="M1302.47,908a11.44,11.44,0,0,0-5.51-20.57,307.76,307.76,0,0,0-129.7,7c-46.85,12.55-90,35.57-125.11,66.76l219.1-56,1.42,5.31-217.73,61.08c46,9.42,94.88,7.81,141.73-4.74A307.78,307.78,0,0,0,1302.47,908Z" transform="translate(-691.36 -699.28)"/><path class="cls-3" d="M1093.91,709.42a11.44,11.44,0,0,0-20.57-5.51,307.93,307.93,0,0,0-58.83,115.8c-12.55,46.85-14.16,95.69-4.74,141.73l61.08-217.73,5.32,1.42-56,219.1c31.19-35.16,54.21-78.26,66.77-125.11A307.9,307.9,0,0,0,1093.91,709.42Z" transform="translate(-691.36 -699.28)"/><path class="cls-3" d="M705.41,1124a11.43,11.43,0,0,0-12.21,17.43,307.93,307.93,0,0,0,88.7,94.9c39.73,27.81,85.07,46,131.56,52.92L729.75,1157.37l3.15-4.51L919.65,1280.4c-22.38-41.33-55-77.71-94.73-105.53A307.76,307.76,0,0,0,705.41,1124Z" transform="translate(-691.36 -699.28)"/></svg>